HIERARCHY
ROOT Hips
{
	OFFSET 0.000000 0.000000 0.000000
	CHANNELS 6 Xposition Yposition Zposition Zrotation Yrotation Xrotation 
	JOINT LHipJoint
	{
		OFFSET 0.000000 0.000000 0.000000
		CHANNELS 3 Zrotation Yrotation Xrotation
		JOINT LeftUpLeg
		{
			OFFSET 1.363060 -1.794630 0.839290
			CHANNELS 3 Zrotation Yrotation Xrotation
			JOINT LeftLeg
			{
				OFFSET 2.448110 -6.726130 0.000000
				CHANNELS 3 Zrotation Yrotation Xrotation
				JOINT LeftFoot
				{
					OFFSET 2.562200 -7.039590 0.000000
					CHANNELS 3 Zrotation Yrotation Xrotation
					JOINT LeftToeBase
					{
						OFFSET 0.157640 -0.433110 2.322550
						CHANNELS 3 Zrotation Yrotation Xrotation
						End Site
						{
							OFFSET 0.000000 0.000000 0.000000
						}
					}
				}
			}
		}
	}
	JOINT RHipJoint
	{
		OFFSET 0.000000 0.000000 0.000000
		CHANNELS 3 Zrotation Yrotation Xrotation
		JOINT RightUpLeg
		{
			OFFSET -1.305520 -1.794630 0.839290
			CHANNELS 3 Zrotation Yrotation Xrotation
			JOINT RightLeg
			{
				OFFSET -2.542530 -6.985550 0.000000
				CHANNELS 3 Zrotation Yrotation Xrotation
				JOINT RightFoot
				{
					OFFSET -2.568260 -7.056230 0.000000
					CHANNELS 3 Zrotation Yrotation Xrotation
					JOINT RightToeBase
					{
						OFFSET -0.164730 -0.452590 2.363150
						CHANNELS 3 Zrotation Yrotation Xrotation
						End Site
						{
							OFFSET 0.000000 0.000000 0.000000
						}
					}
				}
			}
		}
	}
	JOINT LowerBack
	{
		OFFSET 0.000000 0.000000 0.000000
		CHANNELS 3 Zrotation Yrotation Xrotation
		JOINT Spine
		{
			OFFSET 0.028270 2.035590 -0.193380
			CHANNELS 3 Zrotation Yrotation Xrotation
			JOINT Spine1
			{
				OFFSET 0.056720 2.048850 -0.042750
				CHANNELS 3 Zrotation Yrotation Xrotation
				JOINT Neck
				{
					OFFSET 0.000000 0.000000 0.000000
					CHANNELS 3 Zrotation Yrotation Xrotation
					JOINT Neck1
					{
						OFFSET -0.054170 1.746240 0.172020
						CHANNELS 3 Zrotation Yrotation Xrotation
						JOINT Head
						{
							OFFSET 0.104070 1.761360 -0.123970
							CHANNELS 3 Zrotation Yrotation Xrotation
							End Site
							{
								OFFSET 0.000000 0.000000 0.000000
							}
						}
					}
				}
				JOINT LeftShoulder
				{
					OFFSET 0.000000 0.000000 0.000000
					CHANNELS 3 Zrotation Yrotation Xrotation
					JOINT LeftArm
					{
						OFFSET 3.362410 1.200890 -0.311210
						CHANNELS 3 Zrotation Yrotation Xrotation
						JOINT LeftForeArm
						{
							OFFSET 4.983000 -0.000000 -0.000000
							CHANNELS 3 Zrotation Yrotation Xrotation
							JOINT LeftHand
							{
								OFFSET 3.483560 -0.000000 -0.000000
								CHANNELS 3 Zrotation Yrotation Xrotation
								JOINT LeftFingerBase
								{
									OFFSET 0.000000 0.000000 0.000000
									CHANNELS 3 Zrotation Yrotation Xrotation
									JOINT LeftHandIndex1
									{
										OFFSET 0.715260 -0.000000 -0.000000
										CHANNELS 3 Zrotation Yrotation Xrotation
										End Site
										{
											OFFSET 0.000000 0.000000 0.000000
										}
									}
								}
								JOINT LThumb
								{
									OFFSET 0.000000 0.000000 0.000000
									CHANNELS 3 Zrotation Yrotation Xrotation
									End Site
									{
										OFFSET 0.000000 0.000000 0.000000
									}
								}
							}
						}
					}
				}
				JOINT RightShoulder
				{
					OFFSET 0.000000 0.000000 0.000000
					CHANNELS 3 Zrotation Yrotation Xrotation
					JOINT RightArm
					{
						OFFSET -3.136600 1.374050 -0.404650
						CHANNELS 3 Zrotation Yrotation Xrotation
						JOINT RightForeArm
						{
							OFFSET -5.241900 -0.000000 -0.000000
							CHANNELS 3 Zrotation Yrotation Xrotation
							JOINT RightHand
							{
								OFFSET -3.444170 -0.000000 -0.000000
								CHANNELS 3 Zrotation Yrotation Xrotation
								JOINT RightFingerBase
								{
									OFFSET 0.000000 0.000000 0.000000
									CHANNELS 3 Zrotation Yrotation Xrotation
									JOINT RightHandIndex1
									{
										OFFSET -0.622530 -0.000000 -0.000000
										CHANNELS 3 Zrotation Yrotation Xrotation
										End Site
										{
											OFFSET 0.000000 0.000000 0.000000
										}
									}
								}
								JOINT RThumb
								{
									OFFSET 0.000000 0.000000 0.000000
									CHANNELS 3 Zrotation Yrotation Xrotation
									End Site
									{
										OFFSET 0.000000 0.000000 0.000000
									}
								}
							}
						}
					}
				}
			}
		}
	}
}
MOTION
Frames: 7
Frame Time: 0.008333
15.185834 17.496270 -8.788960 5.451376 -13.930034 -1.119892 -1.269296 2.200244 2.774559 -21.323220 -1.658515 0.449780 -0.033509 4.566766 15.341153 -178.517795 6.615345 -24.541948 0.936700 -6.164700 -17.263100 -1.005070 -1.765614 1.107956 12.142230 19.666901 -25.228284 -7.596184 -15.401552 50.875960 -1.681496 11.140611 -9.541069 -0.336200 3.726000 -10.307000 -10.232828 -5.362510 10.181651 2.978812 -8.346761 2.255502 9.355628 -4.144568 -4.294776 -15.499792 -18.831218 6.474514 13.999492 -32.305268 28.022735 3.726200 -14.883000 16.785000 -5.166828 -0.383211 -1.347338 -81.948505 5.442056 25.229487 27.699020 -36.237710 -10.700225 -0.354084 -2.050183 3.372660 17.331374 27.366877 8.866700 -7.125000 0.000000 0.000000 -15.541800 59.982000 -5.765500 5.141642 1.712399 -0.788994 84.915227 -15.595633 14.278206 -20.990089 29.484085 -5.596466 0.257125 -0.063743 2.144965 -14.902501 6.402273 -1.743700 7.125000 0.000000 0.000000 8.527500 -23.314100 4.504600 
15.167030 17.501416 -8.832209 5.264164 -12.955158 -1.011241 -1.271491 2.197996 2.772925 -20.889726 -2.109926 0.301818 -0.032327 4.545279 15.270340 -178.527635 7.832235 -24.680681 0.761000 -5.571200 -15.545300 -0.999035 -1.766398 1.107792 12.256641 20.225086 -24.527857 -7.701784 -15.456530 51.207978 -1.755721 12.044093 -9.624515 -0.354100 3.823000 -10.579200 -10.203043 -5.377853 10.174126 3.027161 -8.374026 2.127394 9.421105 -4.133406 -4.465841 -15.493502 -18.794208 6.345343 13.637322 -32.183647 28.305898 3.607900 -14.833500 16.846700 -5.184193 -0.384907 -1.352656 -82.135582 5.610603 24.694356 27.441818 -35.993161 -10.510822 -0.338922 -2.077738 3.558372 16.795488 27.850371 8.704200 -7.125000 0.000000 0.000000 -16.502700 60.342200 -6.275700 5.142454 1.698080 -0.792013 84.808961 -15.727911 14.126259 -20.783451 29.218439 -5.482187 0.263337 -0.062777 2.110145 -15.198261 6.267545 -1.742800 7.125000 0.000000 0.000000 8.311500 -23.443300 4.363200 
15.145256 17.507156 -8.871599 5.173741 -11.974629 -0.890686 -1.269965 2.185700 2.757501 -20.579410 -2.542442 0.043584 -0.013342 4.593574 15.396495 -178.514974 8.705273 -25.024035 0.758800 -5.563000 -15.521700 -0.991648 -1.765919 1.109157 12.279653 20.906822 -23.791266 -7.775656 -15.482626 51.419156 -1.807403 13.062846 -9.453731 -0.344300 3.770200 -10.431100 -10.203769 -5.361643 10.042986 3.000080 -8.351322 2.048555 9.374644 -4.106921 -4.517332 -15.162653 -18.828336 6.103269 13.057129 -32.077813 28.569474 3.354000 -14.764200 16.789600 -5.200598 -0.400042 -1.353553 -82.139010 5.678938 24.393541 27.204363 -35.770001 -10.339307 -0.338497 -2.096058 3.541124 16.647723 28.149220 8.705900 -7.125000 0.000000 0.000000 -16.892000 60.609900 -6.536800 5.140204 1.673516 -0.802114 84.860249 -15.805965 13.866757 -20.604824 28.991540 -5.385454 0.268508 -0.061126 2.004180 -15.431149 6.145291 -1.736400 7.125000 0.000000 0.000000 8.141700 -23.562600 4.249700 
15.123285 17.512600 -8.909405 5.039413 -10.946025 -0.773927 -1.265969 2.181042 2.745156 -20.234394 -3.053106 -0.120110 -0.002907 4.637113 15.504131 -178.493993 9.205109 -25.349833 0.791700 -5.679800 -15.858100 -0.985593 -1.765576 1.108555 12.391473 21.616612 -22.957279 -7.833714 -15.494416 51.570208 -1.851156 14.046384 -9.313477 -0.353600 3.820300 -10.571600 -10.138676 -5.375573 9.886652 3.002199 -8.351843 1.999775 9.319172 -4.104185 -4.510021 -15.144291 -18.772201 6.000438 12.869653 -31.902911 28.660642 3.314200 -14.689600 16.774600 -5.220964 -0.402333 -1.354344 -82.210781 5.697999 24.003194 26.899968 -35.475994 -10.119368 -0.353419 -2.114311 3.625406 16.689250 28.451116 8.816100 -7.125000 0.000000 0.000000 -17.072100 60.928900 -6.738600 5.143126 1.664386 -0.802609 84.848183 -15.793837 13.638708 -20.394989 28.724204 -5.272628 0.275375 -0.059958 1.759307 -15.722245 6.080216 -1.752400 7.125000 0.000000 0.000000 7.925100 -23.620100 4.123900 
15.102700 17.518241 -8.948894 4.843265 -9.823317 -0.686423 -1.264336 2.183046 2.737948 -19.822581 -3.680985 -0.237150 0.010804 4.682169 15.612221 -178.516156 10.071257 -25.412374 0.693100 -5.322200 -14.829800 -0.977468 -1.760701 1.104828 12.606314 22.175881 -22.122282 -7.873268 -15.491628 51.650333 -1.889908 15.046949 -9.200618 -0.348000 3.790400 -10.487600 -9.922071 -5.339902 9.794791 3.004562 -8.266797 1.967626 9.172979 -4.062874 -4.554211 -15.485842 -18.780888 6.052110 13.110926 -31.946497 28.649115 3.441100 -14.721900 16.922400 -5.249155 -0.394703 -1.350603 -82.218172 5.464610 23.876353 26.391664 -34.970250 -9.775521 -0.385147 -2.071624 3.519586 17.063551 27.310790 8.727900 -7.125000 0.000000 0.000000 -15.780000 59.888800 -5.821300 5.154660 1.684964 -0.797248 84.967358 -15.729029 13.045720 -20.161505 28.425761 -5.147563 0.280731 -0.058245 1.563873 -15.947614 5.988056 -1.752100 7.125000 0.000000 0.000000 7.758700 -23.708500 4.019800 
15.079838 17.524080 -8.982147 4.752827 -8.716633 -0.598487 -1.266433 2.177184 2.724700 -19.535286 -4.257011 -0.405359 0.027955 4.729965 15.731240 -178.553206 11.011028 -25.429483 0.597500 -4.948500 -13.761800 -0.968173 -1.756002 1.102925 12.705111 22.751862 -21.342169 -7.897303 -15.478459 51.676442 -1.907170 16.091801 -8.952758 -0.277000 3.385000 -9.352400 -9.828413 -5.274075 9.698420 3.004763 -8.163007 1.896065 9.097832 -4.003032 -4.639325 -15.920524 -18.875186 5.980690 13.074064 -32.123581 28.909670 3.426600 -14.816500 17.232200 -5.279934 -0.391218 -1.347138 -82.270662 5.251254 23.733729 25.934614 -34.505709 -9.470522 -0.420942 -2.019549 3.498447 17.496122 26.043255 8.614000 -7.125000 0.000000 0.000000 -14.420200 58.713000 -4.899100 5.160389 1.699591 -0.792937 85.022561 -15.735920 12.497751 -19.909446 28.101190 -5.014419 0.283515 -0.057704 1.309417 -16.044771 5.955641 -1.754200 7.125000 0.000000 0.000000 7.686300 -23.738000 3.976400 
15.052720 17.529226 -9.012432 4.563540 -7.694954 -0.482364 -1.265069 2.173130 2.710608 -19.139259 -4.803941 -0.600803 0.042517 4.777951 15.847944 -178.572106 11.773122 -25.569837 0.539800 -4.707300 -13.075500 -0.960236 -1.753980 1.098310 12.972494 23.504326 -20.435186 -7.903838 -15.451075 51.643581 -1.919210 16.894769 -8.818846 -0.201900 2.893400 -7.982200 -9.696943 -5.255278 9.521392 2.964234 -8.102488 1.943617 8.934429 -3.986869 -4.511272 -15.532463 -18.864982 5.495231 12.847288 -31.972719 29.026486 3.281700 -14.679100 17.225600 -5.296801 -0.401394 -1.347219 -82.164885 5.054411 23.407791 25.764377 -34.336555 -9.325880 -0.420949 -2.136025 3.616850 17.201232 28.559374 9.165000 -7.125000 0.000000 0.000000 -16.536500 61.192500 -6.624100 5.165502 1.690377 -0.798469 85.128651 -15.544548 12.158353 -19.633018 27.760890 -4.877050 0.280155 -0.063730 1.458987 -15.881145 6.148698 -1.792500 7.125000 0.000000 0.000000 7.801700 -23.538900 4.073200 
